<svg xmlns="http://www.w3.org/2000/svg" width="1440" height="1080" viewBox="0 0 1440 1080"><defs><filter id="elevation" x="-20%" y="-30%" width="140%" height="160%"><feDropShadow dx="0" dy="5" stdDeviation="10" flood-color="#20352D" flood-opacity=".065"/></filter><linearGradient id="warm" x1="0" y1="0" x2="1" y2="1"><stop stop-color="#FAF7F2"/><stop offset="1" stop-color="#E8E0D5"/></linearGradient><linearGradient id="forest" x1="0" y1="0" x2="1" y2="1"><stop stop-color="#245646"/><stop offset="1" stop-color="#173D32"/></linearGradient></defs><rect x="0" y="0" width="1440" height="1080" rx="0" fill="#F2EDE5"/><rect x="0" y="0" width="1440" height="66" rx="0" fill="#E8E0D5"/><text x="20" y="24" font-size="12" font-family="Arial,sans-serif" fill="#173D32" font-weight="600">CAR-01 · DESKTOP · DEFAULT</text><text x="20" y="48" font-size="14" font-family="Arial,sans-serif" fill="#615E57">DevAI Studio · build specification v4</text><defs><clipPath id="body"><rect x="0" y="66" width="1440" height="934"/></clipPath></defs><g clip-path="url(#body)"><rect x="0" y="66" width="1440" height="74" rx="0" fill="#FAF7F2"/><rect filter="url(#elevation)" x="24" y="80" width="112" height="48" rx="12" fill="#FAF7F2" stroke="#82786B"/><g transform="translate(38 94) scale(0.8333333333333334)"><path d="M5 12h14 M13 6l6 6-6 6" fill="none" stroke="#173D32" stroke-width="1.65" stroke-linecap="round" stroke-linejoin="round"/></g><text x="68" y="110" font-size="15" font-family="Arial,sans-serif" fill="#173D32" font-weight="600">Done</text><text x="160" y="109" font-size="22" font-family="Arial,sans-serif" fill="#20352D" font-weight="600">Durable AI workflows</text><rect x="1120" y="88" width="157" height="28" rx="14" fill="#E2EBE1"/><text x="1132" y="107" font-size="13" font-family="Arial,sans-serif" fill="#173D32">Saved · revision 12</text><text x="28" y="192" font-size="34" font-family="Georgia,serif" fill="#20352D">Carousel editor</text><rect filter="url(#elevation)" x="16" y="214" width="180" height="744" rx="18" fill="#FAF7F2"/><rect filter="url(#elevation)" x="212" y="214" width="504" height="744" rx="18" fill="#FAF7F2"/><rect filter="url(#elevation)" x="744" y="214" width="668" height="744" rx="18" fill="#FAF7F2"/><rect x="28" y="218" width="56" height="70" rx="10" fill="#E8E0D5"/><image x="28.0" y="218.01247771836006" width="56.0" height="69.97504456327985" href="../artwork/ai-art-0.png"/><text x="102" y="257" font-size="14" font-family="Arial,sans-serif" fill="#20352D">Slide 1</text><rect x="28" y="304" width="56" height="70" rx="10" fill="#E8E0D5"/><image x="28.0" y="304.01247771836006" width="56.0" height="69.97504456327985" href="../artwork/ai-art-1.png"/><text x="102" y="343" font-size="14" font-family="Arial,sans-serif" fill="#20352D">Slide 2</text><rect x="28" y="390" width="56" height="70" rx="10" fill="#E8E0D5"/><image x="28.0" y="390.01247771836006" width="56.0" height="69.97504456327985" href="../artwork/ai-art-2.png"/><text x="102" y="429" font-size="14" font-family="Arial,sans-serif" fill="#20352D">Slide 3</text><rect x="28" y="476" width="56" height="70" rx="10" fill="#E8E0D5"/><image x="28.0" y="476.01247771836006" width="56.0" height="69.97504456327985" href="../artwork/ai-art-3.png"/><text x="102" y="515" font-size="14" font-family="Arial,sans-serif" fill="#20352D">Slide 4</text><rect x="28" y="562" width="56" height="70" rx="10" fill="#E8E0D5"/><image x="28.0" y="562.0124777183601" width="56.0" height="69.97504456327985" href="../artwork/ai-art-0.png"/><text x="102" y="601" font-size="14" font-family="Arial,sans-serif" fill="#20352D">Slide 5</text><rect x="28" y="648" width="56" height="70" rx="10" fill="#E8E0D5"/><image x="28.0" y="648.0124777183601" width="56.0" height="69.97504456327985" href="../artwork/ai-art-1.png"/><text x="102" y="687" font-size="14" font-family="Arial,sans-serif" fill="#20352D">Slide 6</text><rect x="28" y="734" width="56" height="70" rx="10" fill="#E8E0D5"/><image x="28.0" y="734.0124777183601" width="56.0" height="69.97504456327985" href="../artwork/ai-art-2.png"/><text x="102" y="773" font-size="14" font-family="Arial,sans-serif" fill="#20352D">Slide 7</text><rect x="28" y="820" width="56" height="70" rx="10" fill="#E8E0D5"/><image x="28.0" y="820.0124777183601" width="56.0" height="69.97504456327985" href="../artwork/ai-art-3.png"/><text x="102" y="859" font-size="14" font-family="Arial,sans-serif" fill="#20352D">Slide 8</text><rect x="236" y="218" width="456" height="570" rx="10" fill="#E8E0D5"/><image x="236.0" y="218.10160427807483" width="456.0" height="569.7967914438503" href="../artwork/ai-art-1.png"/><rect x="236" y="816" width="129" height="28" rx="14" fill="#E2EBE1"/><text x="248" y="835" font-size="13" font-family="Arial,sans-serif" fill="#173D32">Current artwork</text><text x="768" y="234" font-size="14" font-family="Arial,sans-serif" fill="#615E57" font-weight="600">Headline</text><rect x="768" y="246" width="540" height="52" rx="10" fill="#F2EDE5" stroke="#82786B"/><text x="782" y="271" font-size="16" font-family="Arial,sans-serif" fill="#20352D">Keep what already worked</text><g transform="translate(1280 261) scale(0.6666666666666666)"><path d="M9 5l7 7-7 7" fill="none" stroke="#615E57" stroke-width="1.65" stroke-linecap="round" stroke-linejoin="round"/></g><text x="768" y="342" font-size="14" font-family="Arial,sans-serif" fill="#615E57" font-weight="600">Body · optional</text><rect x="768" y="354" width="540" height="96" rx="10" fill="#F2EDE5" stroke="#82786B"/><text x="782" y="379" font-size="16" font-family="Arial,sans-serif" fill="#20352D">Add supporting copy (optional)</text><text x="768" y="490" font-size="18" font-family="Arial,sans-serif" fill="#20352D">AI chooses a fresh visual concept. Compared with</text><text x="768" y="518" font-size="18" font-family="Arial,sans-serif" fill="#20352D">recent and scheduled posts; no layout input</text><text x="768" y="546" font-size="18" font-family="Arial,sans-serif" fill="#20352D">required.</text><rect filter="url(#elevation)" x="768" y="588" width="280" height="48" rx="12" fill="#FAF7F2" stroke="#82786B"/><g transform="translate(782 602) scale(0.8333333333333334)"><path d="M12 2l3 7 7 3-7 3-3 7-3-7-7-3 7-3z" fill="none" stroke="#173D32" stroke-width="1.65" stroke-linecap="round" stroke-linejoin="round"/></g><text x="812" y="618" font-size="15" font-family="Arial,sans-serif" fill="#173D32" font-weight="600">Regenerate artwork</text><rect x="768" y="654" width="280" height="48" rx="12" fill="#173D32"/><g transform="translate(782 668) scale(0.8333333333333334)"><path d="M7 3h10v3H7z M5 5H3v16h18V5h-2 M7 13l3 3 7-7" fill="none" stroke="#FAF7F2" stroke-width="1.65" stroke-linecap="round" stroke-linejoin="round"/></g><text x="812" y="684" font-size="15" font-family="Arial,sans-serif" fill="#FAF7F2" font-weight="600">Send to review</text><rect filter="url(#elevation)" x="768" y="716" width="132" height="48" rx="12" fill="#FAF7F2" stroke="#82786B"/><g transform="translate(782 730) scale(0.8333333333333334)"><path d="M6 3h8l4 4v14H6z M14 3v5h4 M9 12h6 M9 16h6" fill="none" stroke="#173D32" stroke-width="1.65" stroke-linecap="round" stroke-linejoin="round"/></g><text x="812" y="746" font-size="15" font-family="Arial,sans-serif" fill="#173D32" font-weight="600">Caption</text><rect filter="url(#elevation)" x="920" y="716" width="136" height="48" rx="12" fill="#FAF7F2" stroke="#82786B"/><g transform="translate(934 730) scale(0.8333333333333334)"><path d="M5 12h14 M13 6l6 6-6 6" fill="none" stroke="#173D32" stroke-width="1.65" stroke-linecap="round" stroke-linejoin="round"/></g><text x="964" y="746" font-size="15" font-family="Arial,sans-serif" fill="#173D32" font-weight="600">Versions</text><rect filter="url(#elevation)" x="768" y="786" width="344" height="48" rx="12" fill="#FAF7F2" stroke="#82786B"/><g transform="translate(782 800) scale(0.8333333333333334)"><path d="M12 2l3 7 7 3-7 3-3 7-3-7-7-3 7-3z" fill="none" stroke="#173D32" stroke-width="1.65" stroke-linecap="round" stroke-linejoin="round"/></g><text x="812" y="816" font-size="15" font-family="Arial,sans-serif" fill="#173D32" font-weight="600">Make this post look different</text><text x="768" y="892" font-size="16" font-family="Arial,sans-serif" fill="#173D32">Undo   /   Redo   /   Preview</text></g><rect x="0" y="1000" width="1440" height="80" rx="0" fill="#E8E0D5"/><text x="20" y="1027" font-size="12" font-family="Arial,sans-serif" fill="#615E57">Screen-specific actions and states: screens/CAR-01.md. Artwork is illustrative; production assets are complete AI compositions. Revision 4 · warm editorial components; illustrated fixture data, not live</text><text x="20" y="1045" font-size="12" font-family="Arial,sans-serif" fill="#615E57">service results.</text></svg>