<svg xmlns="http://www.w3.org/2000/svg" width="1440" height="1080" viewBox="0 0 1440 1080"><defs><filter id="elevation" x="-20%" y="-30%" width="140%" height="160%"><feDropShadow dx="0" dy="5" stdDeviation="10" flood-color="#20352D" flood-opacity=".065"/></filter><linearGradient id="warm" x1="0" y1="0" x2="1" y2="1"><stop stop-color="#FAF7F2"/><stop offset="1" stop-color="#E8E0D5"/></linearGradient><linearGradient id="forest" x1="0" y1="0" x2="1" y2="1"><stop stop-color="#245646"/><stop offset="1" stop-color="#173D32"/></linearGradient></defs><rect x="0" y="0" width="1440" height="1080" rx="0" fill="#F2EDE5"/><rect x="0" y="0" width="1440" height="66" rx="0" fill="#E8E0D5"/><text x="20" y="24" font-size="12" font-family="Arial,sans-serif" fill="#173D32" font-weight="600">CAR-02 · DESKTOP · DEFAULT</text><text x="20" y="48" font-size="14" font-family="Arial,sans-serif" fill="#615E57">DevAI Studio · build specification v4</text><defs><clipPath id="body"><rect x="0" y="66" width="1440" height="934"/></clipPath></defs><g clip-path="url(#body)"><rect x="0" y="66" width="1440" height="74" rx="0" fill="#FAF7F2"/><rect filter="url(#elevation)" x="24" y="80" width="112" height="48" rx="12" fill="#FAF7F2" stroke="#82786B"/><g transform="translate(38 94) scale(0.8333333333333334)"><path d="M5 12h14 M13 6l6 6-6 6" fill="none" stroke="#173D32" stroke-width="1.65" stroke-linecap="round" stroke-linejoin="round"/></g><text x="68" y="110" font-size="15" font-family="Arial,sans-serif" fill="#173D32" font-weight="600">Done</text><text x="160" y="109" font-size="22" font-family="Arial,sans-serif" fill="#20352D" font-weight="600">Durable AI workflows</text><rect x="1120" y="88" width="157" height="28" rx="14" fill="#E2EBE1"/><text x="1132" y="107" font-size="13" font-family="Arial,sans-serif" fill="#173D32">Saved · revision 12</text><text x="28" y="192" font-size="34" font-family="Georgia,serif" fill="#20352D">Edit a slide</text><rect filter="url(#elevation)" x="812" y="226" width="600" height="610" rx="18" fill="#FAF7F2"/><rect x="830" y="244" width="32" height="32" rx="9" fill="#E8E0D5"/><g transform="translate(835 249) scale(0.9166666666666666)"><path d="M3 3h18v18H3z M3 16l6-6 5 5 3-3 4 4 M16 7h.1" fill="none" stroke="#173D32" stroke-width="1.65" stroke-linecap="round" stroke-linejoin="round"/></g><text x="870" y="265" font-size="18" font-family="Arial,sans-serif" fill="#20352D" font-weight="600">Current artwork</text><rect x="900" y="302" width="380" height="475" rx="10" fill="#E8E0D5"/><image x="900.0" y="302.0846702317291" width="380.0" height="474.8306595365419" href="../artwork/ai-art-1.png"/><text x="28" y="242" font-size="14" font-family="Arial,sans-serif" fill="#615E57" font-weight="600">Headline</text><rect x="28" y="254" width="720" height="52" rx="10" fill="#F2EDE5" stroke="#82786B"/><text x="42" y="279" font-size="16" font-family="Arial,sans-serif" fill="#20352D">Keep what already worked</text><g transform="translate(720 269) scale(0.6666666666666666)"><path d="M9 5l7 7-7 7" fill="none" stroke="#615E57" stroke-width="1.65" stroke-linecap="round" stroke-linejoin="round"/></g><rect x="28" y="324" width="280" height="48" rx="12" fill="#173D32"/><g transform="translate(42 338) scale(0.8333333333333334)"><path d="M5 12l4 4L19 6" fill="none" stroke="#FAF7F2" stroke-width="1.65" stroke-linecap="round" stroke-linejoin="round"/></g><text x="72" y="354" font-size="15" font-family="Arial,sans-serif" fill="#FAF7F2" font-weight="600">Save now</text><rect filter="url(#elevation)" x="28" y="388" width="320" height="48" rx="12" fill="#FAF7F2" stroke="#82786B"/><g transform="translate(42 402) scale(0.8333333333333334)"><path d="M12 2l3 7 7 3-7 3-3 7-3-7-7-3 7-3z" fill="none" stroke="#173D32" stroke-width="1.65" stroke-linecap="round" stroke-linejoin="round"/></g><text x="72" y="418" font-size="15" font-family="Arial,sans-serif" fill="#173D32" font-weight="600">Regenerate artwork</text></g><rect x="0" y="1000" width="1440" height="80" rx="0" fill="#E8E0D5"/><text x="20" y="1027" font-size="12" font-family="Arial,sans-serif" fill="#615E57">Build reference · CAR-02 · /content/:contentId/carousel/slides/:slideId · exact control behavior in the screen and interaction contracts. Revision 4 · warm editorial components; illustrated fixture data,</text><text x="20" y="1045" font-size="12" font-family="Arial,sans-serif" fill="#615E57">not live service results.</text></svg>