<svg xmlns="http://www.w3.org/2000/svg" width="1440" height="1080" viewBox="0 0 1440 1080"><defs><filter id="elevation" x="-20%" y="-30%" width="140%" height="160%"><feDropShadow dx="0" dy="5" stdDeviation="10" flood-color="#20352D" flood-opacity=".065"/></filter><linearGradient id="warm" x1="0" y1="0" x2="1" y2="1"><stop stop-color="#FAF7F2"/><stop offset="1" stop-color="#E8E0D5"/></linearGradient><linearGradient id="forest" x1="0" y1="0" x2="1" y2="1"><stop stop-color="#245646"/><stop offset="1" stop-color="#173D32"/></linearGradient></defs><rect x="0" y="0" width="1440" height="1080" rx="0" fill="#F2EDE5"/><rect x="0" y="0" width="1440" height="66" rx="0" fill="#E8E0D5"/><text x="20" y="24" font-size="12" font-family="Arial,sans-serif" fill="#173D32" font-weight="600">DISC-02 · DESKTOP · DEFAULT</text><text x="20" y="48" font-size="14" font-family="Arial,sans-serif" fill="#615E57">DevAI Studio · build specification v4</text><defs><clipPath id="body"><rect x="0" y="66" width="1440" height="934"/></clipPath></defs><g clip-path="url(#body)"><rect x="16" y="82" width="216" height="904" rx="20" fill="#173D32"/><rect x="34" y="111" width="30" height="30" rx="9" fill="#245646"/><g transform="translate(39 116) scale(0.8333333333333334)"><path d="M12 2l3 7 7 3-7 3-3 7-3-7-7-3 7-3z" fill="none" stroke="#E7B095" stroke-width="1.65" stroke-linecap="round" stroke-linejoin="round"/></g><text x="74" y="133" font-size="18" font-family="Arial,sans-serif" fill="#FAF7F2" font-weight="600">DevAI Studio</text><g transform="translate(44 189) scale(0.9166666666666666)"><path d="M3 10 12 3 21 10 M5 9v12h14V9 M9 21v-7h6v7" fill="none" stroke="#FAF7F2" stroke-width="1.65" stroke-linecap="round" stroke-linejoin="round"/></g><text x="80" y="207" font-size="16" font-family="Arial,sans-serif" fill="#FAF7F2">Home</text><rect x="28" y="235" width="192" height="44" rx="10" fill="#245646"/><rect x="28" y="247" width="3" height="20" rx="2" fill="#E7B095"/><g transform="translate(44 246) scale(0.9166666666666666)"><path d="M12 3a9 9 0 1 0 0 18 9 9 0 1 0 0-18 M16 8l-3 5-5 3 3-5z" fill="none" stroke="#FAF7F2" stroke-width="1.65" stroke-linecap="round" stroke-linejoin="round"/></g><text x="80" y="264" font-size="16" font-family="Arial,sans-serif" fill="#FAF7F2" font-weight="600">Discover</text><g transform="translate(44 303) scale(0.9166666666666666)"><path d="M3 3h7v7H3z M14 3h7v7h-7z M3 14h7v7H3z M14 14h7v7h-7z" fill="none" stroke="#FAF7F2" stroke-width="1.65" stroke-linecap="round" stroke-linejoin="round"/></g><text x="80" y="321" font-size="16" font-family="Arial,sans-serif" fill="#FAF7F2">Content</text><g transform="translate(44 360) scale(0.9166666666666666)"><path d="M7 3h10v3H7z M5 5H3v16h18V5h-2 M7 13l3 3 7-7" fill="none" stroke="#FAF7F2" stroke-width="1.65" stroke-linecap="round" stroke-linejoin="round"/></g><text x="80" y="378" font-size="16" font-family="Arial,sans-serif" fill="#FAF7F2">Review</text><g transform="translate(44 417) scale(0.9166666666666666)"><path d="M2 12h5l3-8 4 16 3-8h5" fill="none" stroke="#FAF7F2" stroke-width="1.65" stroke-linecap="round" stroke-linejoin="round"/></g><text x="80" y="435" font-size="16" font-family="Arial,sans-serif" fill="#FAF7F2">Activity</text><g transform="translate(44 474) scale(0.9166666666666666)"><path d="M4 3v18h17 M8 16v-5 M13 16V7 M18 16v-9" fill="none" stroke="#FAF7F2" stroke-width="1.65" stroke-linecap="round" stroke-linejoin="round"/></g><text x="80" y="492" font-size="16" font-family="Arial,sans-serif" fill="#FAF7F2">Analytics</text><g transform="translate(44 531) scale(0.9166666666666666)"><path d="M12 8a4 4 0 1 0 0 8 4 4 0 1 0 0-8 M12 2v3 M12 19v3 M2 12h3 M19 12h3 M5 5l2 2 M17 17l2 2 M5 19l2-2 M17 7l2-2" fill="none" stroke="#FAF7F2" stroke-width="1.65" stroke-linecap="round" stroke-linejoin="round"/></g><text x="80" y="549" font-size="16" font-family="Arial,sans-serif" fill="#FAF7F2">Settings</text><rect x="34" y="849" width="180" height="1" rx="0" fill="#245646"/><rect x="38" y="876" width="34" height="34" rx="17" fill="#245646"/><text x="47" y="898" font-size="12" font-family="Arial,sans-serif" fill="#FAF7F2" font-weight="600">AG</text><text x="82" y="890" font-size="13" font-family="Arial,sans-serif" fill="#FAF7F2" font-weight="600">Aditya Guggari</text><text x="82" y="911" font-size="12" font-family="Arial,sans-serif" fill="#FAF7F2">Personal studio</text><g transform="translate(187 887) scale(0.75)"><path d="M9 5l7 7-7 7" fill="none" stroke="#FAF7F2" stroke-width="1.65" stroke-linecap="round" stroke-linejoin="round"/></g><text x="272" y="120" font-size="14" font-family="Arial,sans-serif" fill="#615E57">Studio</text><g transform="translate(320 106) scale(0.75)"><path d="M9 5l7 7-7 7" fill="none" stroke="#615E57" stroke-width="1.65" stroke-linecap="round" stroke-linejoin="round"/></g><text x="344" y="120" font-size="14" font-family="Arial,sans-serif" fill="#615E57">Research history and coverage</text><rect filter="url(#elevation)" x="790" y="95" width="392" height="46" rx="12" fill="#FAF7F2"/><g transform="translate(806 108) scale(0.8333333333333334)"><path d="M10 3a7 7 0 1 0 0 14 7 7 0 1 0 0-14 M15 15l6 6" fill="none" stroke="#615E57" stroke-width="1.65" stroke-linecap="round" stroke-linejoin="round"/></g><text x="838" y="124" font-size="14" font-family="Arial,sans-serif" fill="#615E57">Search topics or content</text><text x="1134" y="124" font-size="13" font-family="Arial,sans-serif" fill="#615E57">⌘ K</text><rect filter="url(#elevation)" x="1200" y="95" width="48" height="46" rx="12" fill="#FAF7F2"/><g transform="translate(1213 107) scale(0.9166666666666666)"><path d="M6 16V9a6 6 0 0 1 12 0v7l2 2H4z M10 21h4" fill="none" stroke="#173D32" stroke-width="1.65" stroke-linecap="round" stroke-linejoin="round"/></g><rect x="1231" y="105" width="6" height="6" rx="3" fill="#B42332"/><rect filter="url(#elevation)" x="1264" y="95" width="144" height="46" rx="12" fill="#FAF7F2"/><rect x="1276" y="103" width="30" height="30" rx="15" fill="#173D32"/><text x="1283" y="123" font-size="11" font-family="Arial,sans-serif" fill="#FAF7F2" font-weight="600">AG</text><text x="1320" y="124" font-size="14" font-family="Arial,sans-serif" fill="#20352D">Studio</text><g transform="translate(1380 107) scale(0.75)"><path d="M9 5l7 7-7 7" fill="none" stroke="#173D32" stroke-width="1.65" stroke-linecap="round" stroke-linejoin="round"/></g><text x="272" y="191" font-size="36" font-family="Georgia,serif" fill="#20352D">Research history and coverage</text><text x="272" y="224" font-size="15" font-family="Arial,sans-serif" fill="#615E57">Research with evidence. Create with AI. Publish with confidence.</text><rect filter="url(#elevation)" x="272" y="248" width="560" height="48" rx="12" fill="#FAF7F2" stroke="#CFC6BA"/><g transform="translate(287 262) scale(0.8333333333333334)"><path d="M10 3a7 7 0 1 0 0 14 7 7 0 1 0 0-14 M15 15l6 6" fill="none" stroke="#615E57" stroke-width="1.65" stroke-linecap="round" stroke-linejoin="round"/></g><text x="318" y="278" font-size="15" font-family="Arial,sans-serif" fill="#615E57">Filter by run date</text><rect filter="url(#elevation)" x="848" y="248" width="142" height="48" rx="12" fill="#FAF7F2" stroke="#82786B"/><g transform="translate(862 262) scale(0.8333333333333334)"><path d="M5 12h14 M13 6l6 6-6 6" fill="none" stroke="#173D32" stroke-width="1.65" stroke-linecap="round" stroke-linejoin="round"/></g><text x="892" y="278" font-size="15" font-family="Arial,sans-serif" fill="#173D32" font-weight="600">Filters</text><rect x="272" y="314" width="820" height="42" rx="12" fill="#E8E0D5"/><rect x="276.0" y="318" width="402.0" height="34" rx="8" fill="#FAF7F2"/><text x="284.0" y="341" font-size="13" font-family="Arial,sans-serif" fill="#173D32" font-weight="600">All runs</text><text x="694.0" y="341" font-size="13" font-family="Arial,sans-serif" fill="#615E57">With issues</text><rect x="272" y="378" width="1136" height="124" rx="16" fill="#E8E0D5"/><g transform="translate(290 397) scale(1.0833333333333333)"><path d="M12 2l9 4v6c0 6-9 10-9 10S3 18 3 12V6z M8 12l3 3 5-6" fill="none" stroke="#173D32" stroke-width="1.65" stroke-linecap="round" stroke-linejoin="round"/></g><text x="330" y="413" font-size="17" font-family="Arial,sans-serif" fill="#20352D">Research coverage stays visible</text><text x="290" y="462" font-size="14" font-family="Arial,sans-serif" fill="#615E57">Every captured finding is retained, including duplicates and excluded items.</text><rect filter="url(#elevation)" x="272" y="510" width="1136" height="102" rx="18" fill="#FAF7F2"/><g transform="translate(290 534) scale(1.0833333333333333)"><path d="M19 7a8 8 0 1 0 1 9 M19 3v5h-5" fill="none" stroke="#173D32" stroke-width="1.65" stroke-linecap="round" stroke-linejoin="round"/></g><text x="330" y="542" font-size="18" font-family="Arial,sans-serif" fill="#20352D" font-weight="600">8 Oct 2026 · 14:00</text><text x="330" y="570" font-size="14" font-family="Arial,sans-serif" fill="#615E57">18 findings · 24 sources checked</text><text x="330" y="593" font-size="13" font-family="Arial,sans-serif" fill="#966000">3 failed sources · partial success</text><rect filter="url(#elevation)" x="1078" y="534" width="306" height="48" rx="12" fill="#FAF7F2" stroke="#82786B"/><g transform="translate(1092 548) scale(0.8333333333333334)"><path d="M5 12h14 M13 6l6 6-6 6" fill="none" stroke="#173D32" stroke-width="1.65" stroke-linecap="round" stroke-linejoin="round"/></g><text x="1122" y="564" font-size="15" font-family="Arial,sans-serif" fill="#173D32" font-weight="600">View findings</text><rect filter="url(#elevation)" x="272" y="628" width="1136" height="102" rx="18" fill="#FAF7F2"/><g transform="translate(290 652) scale(1.0833333333333333)"><path d="M19 7a8 8 0 1 0 1 9 M19 3v5h-5" fill="none" stroke="#173D32" stroke-width="1.65" stroke-linecap="round" stroke-linejoin="round"/></g><text x="330" y="660" font-size="18" font-family="Arial,sans-serif" fill="#20352D" font-weight="600">8 Oct 2026 · 08:00</text><text x="330" y="688" font-size="14" font-family="Arial,sans-serif" fill="#615E57">18 findings · 24 sources checked</text><text x="330" y="711" font-size="13" font-family="Arial,sans-serif" fill="#966000">3 failed sources · partial success</text><rect filter="url(#elevation)" x="1078" y="652" width="306" height="48" rx="12" fill="#FAF7F2" stroke="#82786B"/><g transform="translate(1092 666) scale(0.8333333333333334)"><path d="M5 12h14 M13 6l6 6-6 6" fill="none" stroke="#173D32" stroke-width="1.65" stroke-linecap="round" stroke-linejoin="round"/></g><text x="1122" y="682" font-size="15" font-family="Arial,sans-serif" fill="#173D32" font-weight="600">View findings</text><rect filter="url(#elevation)" x="272" y="746" width="1136" height="102" rx="18" fill="#FAF7F2"/><g transform="translate(290 770) scale(1.0833333333333333)"><path d="M19 7a8 8 0 1 0 1 9 M19 3v5h-5" fill="none" stroke="#173D32" stroke-width="1.65" stroke-linecap="round" stroke-linejoin="round"/></g><text x="330" y="778" font-size="18" font-family="Arial,sans-serif" fill="#20352D" font-weight="600">8 Oct 2026 · Yesterday</text><text x="330" y="806" font-size="14" font-family="Arial,sans-serif" fill="#615E57">18 findings · 24 sources checked</text><text x="330" y="829" font-size="13" font-family="Arial,sans-serif" fill="#966000">3 failed sources · partial success</text><rect filter="url(#elevation)" x="1078" y="770" width="306" height="48" rx="12" fill="#FAF7F2" stroke="#82786B"/><g transform="translate(1092 784) scale(0.8333333333333334)"><path d="M5 12h14 M13 6l6 6-6 6" fill="none" stroke="#173D32" stroke-width="1.65" stroke-linecap="round" stroke-linejoin="round"/></g><text x="1122" y="800" font-size="15" font-family="Arial,sans-serif" fill="#173D32" font-weight="600">View findings</text><rect x="272" y="864" width="280" height="48" rx="12" fill="#173D32"/><g transform="translate(286 878) scale(0.8333333333333334)"><path d="M19 7a8 8 0 1 0 1 9 M19 3v5h-5" fill="none" stroke="#FAF7F2" stroke-width="1.65" stroke-linecap="round" stroke-linejoin="round"/></g><text x="316" y="894" font-size="15" font-family="Arial,sans-serif" fill="#FAF7F2" font-weight="600">Retry failed sources</text></g><rect x="0" y="1000" width="1440" height="80" rx="0" fill="#E8E0D5"/><text x="20" y="1027" font-size="12" font-family="Arial,sans-serif" fill="#615E57">Build reference · DISC-02 · /discover/research · exact control behavior in the screen and interaction contracts. Additional contextual controls: Load more. Revision 4 · warm editorial components;</text><text x="20" y="1045" font-size="12" font-family="Arial,sans-serif" fill="#615E57">illustrated fixture data, not live service results.</text></svg>