<svg xmlns="http://www.w3.org/2000/svg" width="1440" height="1080" viewBox="0 0 1440 1080"><defs><filter id="elevation" x="-20%" y="-30%" width="140%" height="160%"><feDropShadow dx="0" dy="5" stdDeviation="10" flood-color="#20352D" flood-opacity=".065"/></filter><linearGradient id="warm" x1="0" y1="0" x2="1" y2="1"><stop stop-color="#FAF7F2"/><stop offset="1" stop-color="#E8E0D5"/></linearGradient><linearGradient id="forest" x1="0" y1="0" x2="1" y2="1"><stop stop-color="#245646"/><stop offset="1" stop-color="#173D32"/></linearGradient></defs><rect x="0" y="0" width="1440" height="1080" rx="0" fill="#F2EDE5"/><rect x="0" y="0" width="1440" height="66" rx="0" fill="#E8E0D5"/><text x="20" y="24" font-size="12" font-family="Arial,sans-serif" fill="#173D32" font-weight="600">PRE-01 · DESKTOP · DEFAULT</text><text x="20" y="48" font-size="14" font-family="Arial,sans-serif" fill="#615E57">DevAI Studio · build specification v4</text><defs><clipPath id="body"><rect x="0" y="66" width="1440" height="934"/></clipPath></defs><g clip-path="url(#body)"><rect x="0" y="66" width="1440" height="74" rx="0" fill="#FAF7F2"/><rect filter="url(#elevation)" x="24" y="80" width="112" height="48" rx="12" fill="#FAF7F2" stroke="#82786B"/><g transform="translate(38 94) scale(0.8333333333333334)"><path d="M5 12h14 M13 6l6 6-6 6" fill="none" stroke="#173D32" stroke-width="1.65" stroke-linecap="round" stroke-linejoin="round"/></g><text x="68" y="110" font-size="15" font-family="Arial,sans-serif" fill="#173D32" font-weight="600">Done</text><text x="160" y="109" font-size="22" font-family="Arial,sans-serif" fill="#20352D" font-weight="600">Durable AI workflows</text><rect x="1120" y="88" width="157" height="28" rx="14" fill="#E2EBE1"/><text x="1132" y="107" font-size="13" font-family="Arial,sans-serif" fill="#173D32">Saved · revision 12</text><text x="28" y="192" font-size="34" font-family="Georgia,serif" fill="#20352D">Carousel preview</text><rect x="328" y="226" width="440" height="550" rx="10" fill="#E8E0D5"/><image x="328.0" y="226.0980392156863" width="440.0" height="549.8039215686274" href="../artwork/ai-art-1.png"/><text x="28" y="812" font-size="14" font-family="Arial,sans-serif" fill="#615E57">Slide2of8 · revision12 · approved preview</text><rect filter="url(#elevation)" x="28" y="836" width="166" height="48" rx="12" fill="#FAF7F2" stroke="#82786B"/><g transform="translate(42 850) scale(0.8333333333333334)"><path d="M5 12h14 M13 6l6 6-6 6" fill="none" stroke="#173D32" stroke-width="1.65" stroke-linecap="round" stroke-linejoin="round"/></g><text x="72" y="866" font-size="15" font-family="Arial,sans-serif" fill="#173D32" font-weight="600">Previous</text><rect filter="url(#elevation)" x="212" y="836" width="166" height="48" rx="12" fill="#FAF7F2" stroke="#82786B"/><g transform="translate(226 850) scale(0.8333333333333334)"><path d="M5 12h14 M13 6l6 6-6 6" fill="none" stroke="#173D32" stroke-width="1.65" stroke-linecap="round" stroke-linejoin="round"/></g><text x="256" y="866" font-size="15" font-family="Arial,sans-serif" fill="#173D32" font-weight="600">Next</text></g><rect x="0" y="1000" width="1440" height="80" rx="0" fill="#E8E0D5"/><text x="20" y="1027" font-size="12" font-family="Arial,sans-serif" fill="#615E57">Screen-specific actions and states: screens/PRE-01.md. Artwork is illustrative; production assets are complete AI compositions. Revision 4 · warm editorial components; illustrated fixture data, not live</text><text x="20" y="1045" font-size="12" font-family="Arial,sans-serif" fill="#615E57">service results.</text></svg>