<svg xmlns="http://www.w3.org/2000/svg" width="390" height="1004" viewBox="0 0 390 1004"><defs><filter id="elevation" x="-20%" y="-30%" width="140%" height="160%"><feDropShadow dx="0" dy="5" stdDeviation="10" flood-color="#20352D" flood-opacity=".065"/></filter><linearGradient id="warm" x1="0" y1="0" x2="1" y2="1"><stop stop-color="#FAF7F2"/><stop offset="1" stop-color="#E8E0D5"/></linearGradient><linearGradient id="forest" x1="0" y1="0" x2="1" y2="1"><stop stop-color="#245646"/><stop offset="1" stop-color="#173D32"/></linearGradient></defs><rect x="0" y="0" width="390" height="1004" rx="0" fill="#F2EDE5"/><rect x="0" y="0" width="390" height="66" rx="0" fill="#E8E0D5"/><text x="20" y="24" font-size="12" font-family="Arial,sans-serif" fill="#173D32" font-weight="600">ANA-01 · IOS · DEFAULT</text><text x="20" y="48" font-size="14" font-family="Arial,sans-serif" fill="#615E57">DevAI Studio · build specification v4</text><defs><clipPath id="body"><rect x="0" y="66" width="390" height="844"/></clipPath></defs><g clip-path="url(#body)"><text x="24" y="91" font-size="14" font-family="Arial,sans-serif" fill="#20352D" font-weight="600">9:41</text><path d="M321 82v7 M325 80v9 M329 78v11" stroke="#20352D" stroke-width="2"/><rect x="345" y="78" width="22" height="11" rx="3" fill="#20352D"/><rect x="348" y="81" width="14" height="5" rx="1" fill="#FAF7F2"/><g transform="translate(16 114) scale(1.0)"><path d="M15 5l-7 7 7 7" fill="none" stroke="#173D32" stroke-width="1.65" stroke-linecap="round" stroke-linejoin="round"/></g><text x="44" y="132" font-size="16" font-family="Arial,sans-serif" fill="#173D32">Back</text><g transform="translate(337 116) scale(0.9166666666666666)"><path d="M5 12h.1 M12 12h.1 M19 12h.1" fill="none" stroke="#173D32" stroke-width="1.65" stroke-linecap="round" stroke-linejoin="round"/></g><text x="20" y="181" font-size="28" font-family="Arial,sans-serif" fill="#20352D">Analytics</text><rect x="148" y="892" width="94" height="5" rx="3" fill="#20352D"/><rect x="20" y="222" width="350" height="124" rx="16" fill="#E8E0D5"/><g transform="translate(38 241) scale(1.0833333333333333)"><path d="M4 3v18h17 M8 16v-5 M13 16V7 M18 16v-9" fill="none" stroke="#173D32" stroke-width="1.65" stroke-linecap="round" stroke-linejoin="round"/></g><text x="78" y="257" font-size="17" font-family="Arial,sans-serif" fill="#20352D">Performance with context</text><text x="38" y="306" font-size="14" font-family="Arial,sans-serif" fill="#615E57">Known metrics are shown. Missing</text><text x="38" y="327" font-size="14" font-family="Arial,sans-serif" fill="#615E57">metrics stay unavailable, never zero.</text><rect filter="url(#elevation)" x="20.0" y="358" width="167.0" height="128" rx="18" fill="#FAF7F2"/><text x="40.0" y="388" font-size="14" font-family="Arial,sans-serif" fill="#615E57">Likes</text><text x="40.0" y="432" font-size="30" font-family="Georgia,serif" fill="#20352D">128</text><text x="40.0" y="462" font-size="12" font-family="Arial,sans-serif" fill="#615E57">Known</text><rect filter="url(#elevation)" x="203.0" y="358" width="167.0" height="128" rx="18" fill="#FAF7F2"/><text x="223.0" y="388" font-size="14" font-family="Arial,sans-serif" fill="#615E57">Saved</text><text x="223.0" y="432" font-size="30" font-family="Georgia,serif" fill="#20352D">24</text><text x="223.0" y="462" font-size="12" font-family="Arial,sans-serif" fill="#615E57">Known</text><rect filter="url(#elevation)" x="20" y="512" width="350" height="222" rx="18" fill="#FAF7F2"/><rect x="38" y="530" width="32" height="32" rx="9" fill="#E8E0D5"/><g transform="translate(43 535) scale(0.9166666666666666)"><path d="M4 3v18h17 M8 16v-5 M13 16V7 M18 16v-9" fill="none" stroke="#173D32" stroke-width="1.65" stroke-linecap="round" stroke-linejoin="round"/></g><text x="78" y="551" font-size="18" font-family="Arial,sans-serif" fill="#20352D" font-weight="600">Likes over the selected period</text><text x="42.0" y="670" font-size="13" font-family="Arial,sans-serif" fill="#615E57">4</text><rect x="42.0" y="678" width="30.0" height="12" rx="6" fill="#173D32"/><text x="42.0" y="716" font-size="12" font-family="Arial,sans-serif" fill="#615E57">1</text><text x="85.71428571428572" y="658" font-size="13" font-family="Arial,sans-serif" fill="#615E57">8</text><rect x="85.71428571428572" y="666" width="30.0" height="24" rx="6" fill="#173D32"/><text x="85.71428571428572" y="716" font-size="12" font-family="Arial,sans-serif" fill="#615E57">2</text><text x="129.42857142857144" y="646" font-size="13" font-family="Arial,sans-serif" fill="#615E57">12</text><rect x="129.42857142857144" y="654" width="30.0" height="36" rx="6" fill="#173D32"/><text x="129.42857142857144" y="716" font-size="12" font-family="Arial,sans-serif" fill="#615E57">3</text><text x="173.14285714285714" y="628" font-size="13" font-family="Arial,sans-serif" fill="#615E57">18</text><rect x="173.14285714285714" y="636" width="30.0" height="54" rx="6" fill="#173D32"/><text x="173.14285714285714" y="716" font-size="12" font-family="Arial,sans-serif" fill="#615E57">4</text><text x="216.85714285714286" y="610" font-size="13" font-family="Arial,sans-serif" fill="#615E57">24</text><rect x="216.85714285714286" y="618" width="30.0" height="72" rx="6" fill="#173D32"/><text x="216.85714285714286" y="716" font-size="12" font-family="Arial,sans-serif" fill="#615E57">5</text><text x="260.57142857142856" y="598" font-size="13" font-family="Arial,sans-serif" fill="#615E57">28</text><rect x="260.57142857142856" y="606" width="30.0" height="84" rx="6" fill="#173D32"/><text x="260.57142857142856" y="716" font-size="12" font-family="Arial,sans-serif" fill="#615E57">6</text><text x="304.2857142857143" y="580" font-size="13" font-family="Arial,sans-serif" fill="#615E57">34</text><rect x="304.2857142857143" y="588" width="30.0" height="102" rx="6" fill="#173D32"/><text x="304.2857142857143" y="716" font-size="12" font-family="Arial,sans-serif" fill="#615E57">7</text><text x="20" y="778" font-size="13" font-family="Arial,sans-serif" fill="#615E57">Design fixture · last refresh 14:00 · 7-day coverage</text><rect x="20" y="808" width="350" height="48" rx="12" fill="#173D32"/><g transform="translate(34 822) scale(0.8333333333333334)"><path d="M12 3v12 M7 8l5-5 5 5 M4 14v7h16v-7" fill="none" stroke="#FAF7F2" stroke-width="1.65" stroke-linecap="round" stroke-linejoin="round"/></g><text x="64" y="838" font-size="16" font-family="Arial,sans-serif" fill="#FAF7F2" font-weight="600">Export report</text></g><rect x="0" y="910" width="390" height="94" rx="0" fill="#E8E0D5"/><text x="20" y="934" font-size="12" font-family="Arial,sans-serif" fill="#615E57">Build reference · ANA-01 · /analytics · exact</text><text x="20" y="952" font-size="12" font-family="Arial,sans-serif" fill="#615E57">control behavior in the screen and interaction</text><text x="20" y="970" font-size="12" font-family="Arial,sans-serif" fill="#615E57">contracts. Additional contextual controls…</text></svg>