<svg xmlns="http://www.w3.org/2000/svg" width="390" height="1004" viewBox="0 0 390 1004"><defs><filter id="elevation" x="-20%" y="-30%" width="140%" height="160%"><feDropShadow dx="0" dy="5" stdDeviation="10" flood-color="#20352D" flood-opacity=".065"/></filter><linearGradient id="warm" x1="0" y1="0" x2="1" y2="1"><stop stop-color="#FAF7F2"/><stop offset="1" stop-color="#E8E0D5"/></linearGradient><linearGradient id="forest" x1="0" y1="0" x2="1" y2="1"><stop stop-color="#245646"/><stop offset="1" stop-color="#173D32"/></linearGradient></defs><rect x="0" y="0" width="390" height="1004" rx="0" fill="#F2EDE5"/><rect x="0" y="0" width="390" height="66" rx="0" fill="#E8E0D5"/><text x="20" y="24" font-size="12" font-family="Arial,sans-serif" fill="#173D32" font-weight="600">CAP-01 · IOS · TOOLS-CONTINUATION</text><text x="20" y="48" font-size="14" font-family="Arial,sans-serif" fill="#615E57">DevAI Studio · build specification v4</text><defs><clipPath id="body"><rect x="0" y="66" width="390" height="844"/></clipPath></defs><g clip-path="url(#body)"><text x="24" y="91" font-size="14" font-family="Arial,sans-serif" fill="#20352D" font-weight="600">9:41</text><path d="M321 82v7 M325 80v9 M329 78v11" stroke="#20352D" stroke-width="2"/><rect x="345" y="78" width="22" height="11" rx="3" fill="#20352D"/><rect x="348" y="81" width="14" height="5" rx="1" fill="#FAF7F2"/><g transform="translate(16 114) scale(1.0)"><path d="M15 5l-7 7 7 7" fill="none" stroke="#173D32" stroke-width="1.65" stroke-linecap="round" stroke-linejoin="round"/></g><text x="44" y="132" font-size="16" font-family="Arial,sans-serif" fill="#173D32">Back</text><g transform="translate(337 116) scale(0.9166666666666666)"><path d="M5 12h.1 M12 12h.1 M19 12h.1" fill="none" stroke="#173D32" stroke-width="1.65" stroke-linecap="round" stroke-linejoin="round"/></g><text x="20" y="181" font-size="28" font-family="Arial,sans-serif" fill="#20352D">Caption &amp; hashtags</text><rect x="148" y="892" width="94" height="5" rx="3" fill="#20352D"/><text x="20" y="244" font-size="23" font-family="Georgia,serif" fill="#20352D">Caption tools</text><rect x="20" y="288" width="350" height="48" rx="12" fill="#173D32"/><g transform="translate(34 302) scale(0.8333333333333334)"><path d="M6 3h8l4 4v14H6z M14 3v5h4 M9 12h6 M9 16h6" fill="none" stroke="#FAF7F2" stroke-width="1.65" stroke-linecap="round" stroke-linejoin="round"/></g><text x="64" y="318" font-size="16" font-family="Arial,sans-serif" fill="#FAF7F2" font-weight="600">Suggest caption</text><rect filter="url(#elevation)" x="20" y="350" width="350" height="48" rx="12" fill="#FAF7F2" stroke="#82786B"/><g transform="translate(34 364) scale(0.8333333333333334)"><path d="M6 3h8l4 4v14H6z M14 3v5h4 M9 12h6 M9 16h6" fill="none" stroke="#173D32" stroke-width="1.65" stroke-linecap="round" stroke-linejoin="round"/></g><text x="64" y="380" font-size="16" font-family="Arial,sans-serif" fill="#173D32" font-weight="600">Copy caption</text><rect filter="url(#elevation)" x="20" y="412" width="350" height="48" rx="12" fill="#FAF7F2" stroke="#82786B"/><g transform="translate(34 426) scale(0.8333333333333334)"><path d="M5 12l4 4L19 6" fill="none" stroke="#173D32" stroke-width="1.65" stroke-linecap="round" stroke-linejoin="round"/></g><text x="64" y="442" font-size="16" font-family="Arial,sans-serif" fill="#173D32" font-weight="600">Save now</text></g><rect x="0" y="910" width="390" height="94" rx="0" fill="#E8E0D5"/><text x="20" y="934" font-size="12" font-family="Arial,sans-serif" fill="#615E57">Continuation/contextual view of CAP-01. Visible</text><text x="20" y="952" font-size="12" font-family="Arial,sans-serif" fill="#615E57">only in its appropriate state; safe retry, role,</text><text x="20" y="970" font-size="12" font-family="Arial,sans-serif" fill="#615E57">approval and cost gates remain defined i…</text></svg>