<svg xmlns="http://www.w3.org/2000/svg" width="390" height="1004" viewBox="0 0 390 1004"><defs><filter id="elevation" x="-20%" y="-30%" width="140%" height="160%"><feDropShadow dx="0" dy="5" stdDeviation="10" flood-color="#20352D" flood-opacity=".065"/></filter><linearGradient id="warm" x1="0" y1="0" x2="1" y2="1"><stop stop-color="#FAF7F2"/><stop offset="1" stop-color="#E8E0D5"/></linearGradient><linearGradient id="forest" x1="0" y1="0" x2="1" y2="1"><stop stop-color="#245646"/><stop offset="1" stop-color="#173D32"/></linearGradient></defs><rect x="0" y="0" width="390" height="1004" rx="0" fill="#F2EDE5"/><rect x="0" y="0" width="390" height="66" rx="0" fill="#E8E0D5"/><text x="20" y="24" font-size="12" font-family="Arial,sans-serif" fill="#173D32" font-weight="600">CREATE-01 · IOS · DEFAULT</text><text x="20" y="48" font-size="14" font-family="Arial,sans-serif" fill="#615E57">DevAI Studio · build specification v4</text><defs><clipPath id="body"><rect x="0" y="66" width="390" height="844"/></clipPath></defs><g clip-path="url(#body)"><text x="24" y="91" font-size="14" font-family="Arial,sans-serif" fill="#20352D" font-weight="600">9:41</text><path d="M321 82v7 M325 80v9 M329 78v11" stroke="#20352D" stroke-width="2"/><rect x="345" y="78" width="22" height="11" rx="3" fill="#20352D"/><rect x="348" y="81" width="14" height="5" rx="1" fill="#FAF7F2"/><g transform="translate(16 114) scale(1.0)"><path d="M15 5l-7 7 7 7" fill="none" stroke="#173D32" stroke-width="1.65" stroke-linecap="round" stroke-linejoin="round"/></g><text x="44" y="132" font-size="16" font-family="Arial,sans-serif" fill="#173D32">Back</text><g transform="translate(337 116) scale(0.9166666666666666)"><path d="M5 12h.1 M12 12h.1 M19 12h.1" fill="none" stroke="#173D32" stroke-width="1.65" stroke-linecap="round" stroke-linejoin="round"/></g><text x="20" y="181" font-size="28" font-family="Arial,sans-serif" fill="#20352D">Choose format</text><rect x="148" y="892" width="94" height="5" rx="3" fill="#20352D"/><rect x="20" y="222" width="350" height="124" rx="16" fill="#E8E0D5"/><g transform="translate(38 241) scale(1.0833333333333333)"><path d="M12 2l3 7 7 3-7 3-3 7-3-7-7-3 7-3z" fill="none" stroke="#173D32" stroke-width="1.65" stroke-linecap="round" stroke-linejoin="round"/></g><text x="78" y="257" font-size="17" font-family="Arial,sans-serif" fill="#20352D">You choose the topic. AI</text><text x="78" y="279" font-size="17" font-family="Arial,sans-serif" fill="#20352D">handles the design.</text><text x="38" y="306" font-size="14" font-family="Arial,sans-serif" fill="#615E57">Every background and composition is</text><text x="38" y="327" font-size="14" font-family="Arial,sans-serif" fill="#615E57">created for the story. Preferences ar…</text><rect filter="url(#elevation)" x="20" y="360" width="350" height="92" rx="18" fill="#FAF7F2"/><rect x="38" y="378" width="48" height="48" rx="14" fill="#E8E0D5"/><g transform="translate(50 390) scale(1.0)"><path d="M3 3h18v18H3z M3 16l6-6 5 5 3-3 4 4 M16 7h.1" fill="none" stroke="#173D32" stroke-width="1.65" stroke-linecap="round" stroke-linejoin="round"/></g><text x="104" y="399" font-size="23" font-family="Georgia,serif" fill="#20352D">Carousel</text><text x="104" y="426" font-size="14" font-family="Arial,sans-serif" fill="#615E57">6–8 AI-composed images · 1080</text><text x="104" y="452" font-size="14" font-family="Arial,sans-serif" fill="#615E57">× 1350</text><rect filter="url(#elevation)" x="20" y="468" width="350" height="92" rx="18" fill="#FAF7F2"/><rect x="38" y="486" width="48" height="48" rx="14" fill="#E8E0D5"/><g transform="translate(50 498) scale(1.0)"><path d="M3 5h12v14H3z M15 9l6-3v12l-6-3" fill="none" stroke="#173D32" stroke-width="1.65" stroke-linecap="round" stroke-linejoin="round"/></g><text x="104" y="507" font-size="23" font-family="Georgia,serif" fill="#20352D">Reel</text><text x="104" y="534" font-size="14" font-family="Arial,sans-serif" fill="#615E57">30–40 second video · 1080 ×</text><text x="104" y="560" font-size="14" font-family="Arial,sans-serif" fill="#615E57">1920</text><rect filter="url(#elevation)" x="20" y="576" width="350" height="92" rx="18" fill="#FAF7F2"/><rect x="38" y="594" width="48" height="48" rx="14" fill="#E8E0D5"/><g transform="translate(50 606) scale(1.0)"><path d="M3 3h7v7H3z M14 3h7v7h-7z M3 14h7v7H3z M14 14h7v7h-7z" fill="none" stroke="#173D32" stroke-width="1.65" stroke-linecap="round" stroke-linejoin="round"/></g><text x="104" y="615" font-size="23" font-family="Georgia,serif" fill="#20352D">Both</text><text x="104" y="642" font-size="14" font-family="Arial,sans-serif" fill="#615E57">Independent outputs, approvals</text><text x="104" y="668" font-size="14" font-family="Arial,sans-serif" fill="#615E57">and posts</text><rect x="20" y="576" width="350" height="92" rx="18" fill="none" stroke="#173D32"/><g transform="translate(330 596) scale(0.9166666666666666)"><path d="M5 12l4 4L19 6" fill="none" stroke="#173D32" stroke-width="1.65" stroke-linecap="round" stroke-linejoin="round"/></g><rect x="20" y="700" width="350" height="48" rx="12" fill="#173D32"/><g transform="translate(34 714) scale(0.8333333333333334)"><path d="M5 12h14 M13 6l6 6-6 6" fill="none" stroke="#FAF7F2" stroke-width="1.65" stroke-linecap="round" stroke-linejoin="round"/></g><text x="64" y="730" font-size="16" font-family="Arial,sans-serif" fill="#FAF7F2" font-weight="600">Continue</text><rect filter="url(#elevation)" x="20" y="764" width="350" height="48" rx="12" fill="#FAF7F2" stroke="#82786B"/><g transform="translate(34 778) scale(0.8333333333333334)"><path d="M5 12h14 M13 6l6 6-6 6" fill="none" stroke="#173D32" stroke-width="1.65" stroke-linecap="round" stroke-linejoin="round"/></g><text x="64" y="794" font-size="16" font-family="Arial,sans-serif" fill="#173D32" font-weight="600">Optional preferences</text></g><rect x="0" y="910" width="390" height="94" rx="0" fill="#E8E0D5"/><text x="20" y="934" font-size="12" font-family="Arial,sans-serif" fill="#615E57">Build reference · CREATE-01 ·</text><text x="20" y="952" font-size="12" font-family="Arial,sans-serif" fill="#615E57">/create?topic=:topicId · exact control behavior in</text><text x="20" y="970" font-size="12" font-family="Arial,sans-serif" fill="#615E57">the screen and interaction contracts. Additiona…</text></svg>