<svg xmlns="http://www.w3.org/2000/svg" width="390" height="1004" viewBox="0 0 390 1004"><defs><filter id="elevation" x="-20%" y="-30%" width="140%" height="160%"><feDropShadow dx="0" dy="5" stdDeviation="10" flood-color="#20352D" flood-opacity=".065"/></filter><linearGradient id="warm" x1="0" y1="0" x2="1" y2="1"><stop stop-color="#FAF7F2"/><stop offset="1" stop-color="#E8E0D5"/></linearGradient><linearGradient id="forest" x1="0" y1="0" x2="1" y2="1"><stop stop-color="#245646"/><stop offset="1" stop-color="#173D32"/></linearGradient></defs><rect x="0" y="0" width="390" height="1004" rx="0" fill="#F2EDE5"/><rect x="0" y="0" width="390" height="66" rx="0" fill="#E8E0D5"/><text x="20" y="24" font-size="12" font-family="Arial,sans-serif" fill="#173D32" font-weight="600">D-CANCEL-SCHEDULE · IOS · DIALOG</text><text x="20" y="48" font-size="14" font-family="Arial,sans-serif" fill="#615E57">DevAI Studio · build specification v4</text><defs><clipPath id="body"><rect x="0" y="66" width="390" height="844"/></clipPath></defs><g clip-path="url(#body)"><rect x="0" y="66" width="390" height="844" rx="0" fill="#E8E0D5"/><rect filter="url(#elevation)" x="8" y="224" width="374" height="590" rx="24" fill="#FAF7F2"/><rect x="164" y="240" width="62" height="4" rx="2" fill="#CFC6BA"/><rect x="20" y="264" width="56" height="56" rx="18" fill="#E8E0D5"/><g transform="translate(34 278) scale(1.1666666666666667)"><path d="M12 3 2 21h20z M12 9v5 M12 17h.1" fill="none" stroke="#173D32" stroke-width="1.65" stroke-linecap="round" stroke-linejoin="round"/></g><text x="20" y="360" font-size="26" font-family="Arial,sans-serif" fill="#20352D">Cancel this scheduled</text><text x="20" y="393" font-size="26" font-family="Arial,sans-serif" fill="#20352D">post?</text><text x="20" y="448" font-size="17" font-family="Arial,sans-serif" fill="#20352D">The approved content stays in your</text><text x="20" y="475" font-size="17" font-family="Arial,sans-serif" fill="#20352D">library. It will not be sent by this</text><text x="20" y="502" font-size="17" font-family="Arial,sans-serif" fill="#20352D">schedule if cancellation succeeds.</text><rect x="20" y="549" width="350" height="48" rx="12" fill="#173D32"/><g transform="translate(34 563) scale(0.8333333333333334)"><path d="M3 5h18v16H3z M7 2v6 M17 2v6 M3 10h18" fill="none" stroke="#FAF7F2" stroke-width="1.65" stroke-linecap="round" stroke-linejoin="round"/></g><text x="64" y="579" font-size="16" font-family="Arial,sans-serif" fill="#FAF7F2" font-weight="600">Cancel schedule</text><rect filter="url(#elevation)" x="20" y="611" width="350" height="48" rx="12" fill="#FAF7F2" stroke="#82786B"/><g transform="translate(34 625) scale(0.8333333333333334)"><path d="M3 5h18v16H3z M7 2v6 M17 2v6 M3 10h18" fill="none" stroke="#173D32" stroke-width="1.65" stroke-linecap="round" stroke-linejoin="round"/></g><text x="64" y="641" font-size="16" font-family="Arial,sans-serif" fill="#173D32" font-weight="600">Keep schedule</text></g><rect x="0" y="910" width="390" height="94" rx="0" fill="#E8E0D5"/><text x="20" y="934" font-size="12" font-family="Arial,sans-serif" fill="#615E57">Dialog D-CANCEL-SCHEDULE · Trigger: Cancel</text><text x="20" y="952" font-size="12" font-family="Arial,sans-serif" fill="#615E57">unclaimed publication. compare-and-swap</text><text x="20" y="970" font-size="12" font-family="Arial,sans-serif" fill="#615E57">reservation; executing race gives honest cannot…</text></svg>