<svg xmlns="http://www.w3.org/2000/svg" width="390" height="1004" viewBox="0 0 390 1004"><defs><filter id="elevation" x="-20%" y="-30%" width="140%" height="160%"><feDropShadow dx="0" dy="5" stdDeviation="10" flood-color="#20352D" flood-opacity=".065"/></filter><linearGradient id="warm" x1="0" y1="0" x2="1" y2="1"><stop stop-color="#FAF7F2"/><stop offset="1" stop-color="#E8E0D5"/></linearGradient><linearGradient id="forest" x1="0" y1="0" x2="1" y2="1"><stop stop-color="#245646"/><stop offset="1" stop-color="#173D32"/></linearGradient></defs><rect x="0" y="0" width="390" height="1004" rx="0" fill="#F2EDE5"/><rect x="0" y="0" width="390" height="66" rx="0" fill="#E8E0D5"/><text x="20" y="24" font-size="12" font-family="Arial,sans-serif" fill="#173D32" font-weight="600">D-DISCONNECT · IOS · DIALOG</text><text x="20" y="48" font-size="14" font-family="Arial,sans-serif" fill="#615E57">DevAI Studio · build specification v4</text><defs><clipPath id="body"><rect x="0" y="66" width="390" height="844"/></clipPath></defs><g clip-path="url(#body)"><rect x="0" y="66" width="390" height="844" rx="0" fill="#E8E0D5"/><rect filter="url(#elevation)" x="8" y="224" width="374" height="590" rx="24" fill="#FAF7F2"/><rect x="164" y="240" width="62" height="4" rx="2" fill="#CFC6BA"/><rect x="20" y="264" width="56" height="56" rx="18" fill="#E8E0D5"/><g transform="translate(34 278) scale(1.1666666666666667)"><path d="M3 6h18 M9 6V3h6v3 M6 6l1 15h10l1-15 M10 10v7 M14 10v7" fill="none" stroke="#B42332" stroke-width="1.65" stroke-linecap="round" stroke-linejoin="round"/></g><text x="20" y="360" font-size="26" font-family="Arial,sans-serif" fill="#20352D">Disconnect Instagram?</text><text x="20" y="415" font-size="17" font-family="Arial,sans-serif" fill="#20352D">Future dependent work will be</text><text x="20" y="442" font-size="17" font-family="Arial,sans-serif" fill="#20352D">paused. Accepted publishing attempts</text><text x="20" y="469" font-size="17" font-family="Arial,sans-serif" fill="#20352D">may still complete. Your content is</text><text x="20" y="496" font-size="17" font-family="Arial,sans-serif" fill="#20352D">retained.</text><rect x="20" y="543" width="350" height="48" rx="12" fill="#173D32"/><g transform="translate(34 557) scale(0.8333333333333334)"><path d="M12 5v14 M5 12h14" fill="none" stroke="#FAF7F2" stroke-width="1.65" stroke-linecap="round" stroke-linejoin="round"/></g><text x="64" y="573" font-size="16" font-family="Arial,sans-serif" fill="#FAF7F2" font-weight="600">Disconnect</text><rect filter="url(#elevation)" x="20" y="605" width="350" height="48" rx="12" fill="#FAF7F2" stroke="#82786B"/><g transform="translate(34 619) scale(0.8333333333333334)"><path d="M15 5l-7 7 7 7" fill="none" stroke="#173D32" stroke-width="1.65" stroke-linecap="round" stroke-linejoin="round"/></g><text x="64" y="635" font-size="16" font-family="Arial,sans-serif" fill="#173D32" font-weight="600">Cancel</text></g><rect x="0" y="910" width="390" height="94" rx="0" fill="#E8E0D5"/><text x="20" y="934" font-size="12" font-family="Arial,sans-serif" fill="#615E57">Dialog D-DISCONNECT · Trigger: Disconnect</text><text x="20" y="952" font-size="12" font-family="Arial,sans-serif" fill="#615E57">provider/account. show impacted jobs/schedules</text><text x="20" y="970" font-size="12" font-family="Arial,sans-serif" fill="#615E57">count; never claim external call recalled. Focu…</text></svg>