<svg xmlns="http://www.w3.org/2000/svg" width="390" height="1004" viewBox="0 0 390 1004"><defs><filter id="elevation" x="-20%" y="-30%" width="140%" height="160%"><feDropShadow dx="0" dy="5" stdDeviation="10" flood-color="#20352D" flood-opacity=".065"/></filter><linearGradient id="warm" x1="0" y1="0" x2="1" y2="1"><stop stop-color="#FAF7F2"/><stop offset="1" stop-color="#E8E0D5"/></linearGradient><linearGradient id="forest" x1="0" y1="0" x2="1" y2="1"><stop stop-color="#245646"/><stop offset="1" stop-color="#173D32"/></linearGradient></defs><rect x="0" y="0" width="390" height="1004" rx="0" fill="#F2EDE5"/><rect x="0" y="0" width="390" height="66" rx="0" fill="#E8E0D5"/><text x="20" y="24" font-size="12" font-family="Arial,sans-serif" fill="#173D32" font-weight="600">HELP-01 · IOS · DEFAULT</text><text x="20" y="48" font-size="14" font-family="Arial,sans-serif" fill="#615E57">DevAI Studio · build specification v4</text><defs><clipPath id="body"><rect x="0" y="66" width="390" height="844"/></clipPath></defs><g clip-path="url(#body)"><text x="24" y="91" font-size="14" font-family="Arial,sans-serif" fill="#20352D" font-weight="600">9:41</text><path d="M321 82v7 M325 80v9 M329 78v11" stroke="#20352D" stroke-width="2"/><rect x="345" y="78" width="22" height="11" rx="3" fill="#20352D"/><rect x="348" y="81" width="14" height="5" rx="1" fill="#FAF7F2"/><g transform="translate(16 114) scale(1.0)"><path d="M15 5l-7 7 7 7" fill="none" stroke="#173D32" stroke-width="1.65" stroke-linecap="round" stroke-linejoin="round"/></g><text x="44" y="132" font-size="16" font-family="Arial,sans-serif" fill="#173D32">Back</text><g transform="translate(337 116) scale(0.9166666666666666)"><path d="M5 12h.1 M12 12h.1 M19 12h.1" fill="none" stroke="#173D32" stroke-width="1.65" stroke-linecap="round" stroke-linejoin="round"/></g><text x="20" y="181" font-size="28" font-family="Arial,sans-serif" fill="#20352D">Help &amp; support</text><rect x="148" y="892" width="94" height="5" rx="3" fill="#20352D"/><rect filter="url(#elevation)" x="20" y="222" width="350" height="48" rx="12" fill="#FAF7F2" stroke="#CFC6BA"/><g transform="translate(35 236) scale(0.8333333333333334)"><path d="M10 3a7 7 0 1 0 0 14 7 7 0 1 0 0-14 M15 15l6 6" fill="none" stroke="#615E57" stroke-width="1.65" stroke-linecap="round" stroke-linejoin="round"/></g><text x="66" y="252" font-size="15" font-family="Arial,sans-serif" fill="#615E57">Search help articles</text><rect filter="url(#elevation)" x="20" y="292" width="350" height="82" rx="12" fill="#FAF7F2"/><rect x="34" y="310" width="40" height="40" rx="12" fill="#E8E0D5"/><g transform="translate(43 319) scale(0.9166666666666666)"><path d="M6 3h8l4 4v14H6z M14 3v5h4 M9 12h6 M9 16h6" fill="none" stroke="#173D32" stroke-width="1.65" stroke-linecap="round" stroke-linejoin="round"/></g><text x="90" y="323" font-size="17" font-family="Arial,sans-serif" fill="#20352D">Research and sourc…</text><text x="90" y="349" font-size="14" font-family="Arial,sans-serif" fill="#615E57">Understand ranking and th…</text><g transform="translate(342 322) scale(0.75)"><path d="M9 5l7 7-7 7" fill="none" stroke="#615E57" stroke-width="1.65" stroke-linecap="round" stroke-linejoin="round"/></g><rect filter="url(#elevation)" x="20" y="392" width="350" height="82" rx="12" fill="#FAF7F2"/><rect x="34" y="410" width="40" height="40" rx="12" fill="#E8E0D5"/><g transform="translate(43 419) scale(0.9166666666666666)"><path d="M6 3h8l4 4v14H6z M14 3v5h4 M9 12h6 M9 16h6" fill="none" stroke="#173D32" stroke-width="1.65" stroke-linecap="round" stroke-linejoin="round"/></g><text x="90" y="423" font-size="17" font-family="Arial,sans-serif" fill="#20352D">AI content generation</text><text x="90" y="449" font-size="14" font-family="Arial,sans-serif" fill="#615E57">Full artwork, fresh concepts an…</text><g transform="translate(342 422) scale(0.75)"><path d="M9 5l7 7-7 7" fill="none" stroke="#615E57" stroke-width="1.65" stroke-linecap="round" stroke-linejoin="round"/></g><rect filter="url(#elevation)" x="20" y="492" width="350" height="82" rx="12" fill="#FAF7F2"/><rect x="34" y="510" width="40" height="40" rx="12" fill="#E8E0D5"/><g transform="translate(43 519) scale(0.9166666666666666)"><path d="M6 3h8l4 4v14H6z M14 3v5h4 M9 12h6 M9 16h6" fill="none" stroke="#173D32" stroke-width="1.65" stroke-linecap="round" stroke-linejoin="round"/></g><text x="90" y="523" font-size="17" font-family="Arial,sans-serif" fill="#20352D">Review and publishing</text><text x="90" y="549" font-size="14" font-family="Arial,sans-serif" fill="#615E57">Approvals, permissions an…</text><g transform="translate(342 522) scale(0.75)"><path d="M9 5l7 7-7 7" fill="none" stroke="#615E57" stroke-width="1.65" stroke-linecap="round" stroke-linejoin="round"/></g><rect filter="url(#elevation)" x="20" y="592" width="350" height="82" rx="12" fill="#FAF7F2"/><rect x="34" y="610" width="40" height="40" rx="12" fill="#E8E0D5"/><g transform="translate(43 619) scale(0.9166666666666666)"><path d="M6 3h8l4 4v14H6z M14 3v5h4 M9 12h6 M9 16h6" fill="none" stroke="#173D32" stroke-width="1.65" stroke-linecap="round" stroke-linejoin="round"/></g><text x="90" y="623" font-size="17" font-family="Arial,sans-serif" fill="#20352D">Recover your work</text><text x="90" y="649" font-size="14" font-family="Arial,sans-serif" fill="#615E57">Autosave, cross-device sync an…</text><g transform="translate(342 622) scale(0.75)"><path d="M9 5l7 7-7 7" fill="none" stroke="#615E57" stroke-width="1.65" stroke-linecap="round" stroke-linejoin="round"/></g><rect x="20" y="692" width="350" height="48" rx="12" fill="#173D32"/><g transform="translate(34 706) scale(0.8333333333333334)"><path d="M12 3v12 M7 8l5-5 5 5 M4 14v7h16v-7" fill="none" stroke="#FAF7F2" stroke-width="1.65" stroke-linecap="round" stroke-linejoin="round"/></g><text x="64" y="722" font-size="16" font-family="Arial,sans-serif" fill="#FAF7F2" font-weight="600">Export diagnostics</text></g><rect x="0" y="910" width="390" height="94" rx="0" fill="#E8E0D5"/><text x="20" y="934" font-size="12" font-family="Arial,sans-serif" fill="#615E57">Build reference · HELP-01 · /help · exact control</text><text x="20" y="952" font-size="12" font-family="Arial,sans-serif" fill="#615E57">behavior in the screen and interaction contracts.</text><text x="20" y="970" font-size="12" font-family="Arial,sans-serif" fill="#615E57">Revision 4 · warm editorial components; illustrate…</text></svg>