<svg xmlns="http://www.w3.org/2000/svg" width="390" height="1004" viewBox="0 0 390 1004"><defs><filter id="elevation" x="-20%" y="-30%" width="140%" height="160%"><feDropShadow dx="0" dy="5" stdDeviation="10" flood-color="#20352D" flood-opacity=".065"/></filter><linearGradient id="warm" x1="0" y1="0" x2="1" y2="1"><stop stop-color="#FAF7F2"/><stop offset="1" stop-color="#E8E0D5"/></linearGradient><linearGradient id="forest" x1="0" y1="0" x2="1" y2="1"><stop stop-color="#245646"/><stop offset="1" stop-color="#173D32"/></linearGradient></defs><rect x="0" y="0" width="390" height="1004" rx="0" fill="#F2EDE5"/><rect x="0" y="0" width="390" height="66" rx="0" fill="#E8E0D5"/><text x="20" y="24" font-size="12" font-family="Arial,sans-serif" fill="#173D32" font-weight="600">PUB-03 · IOS · DEFAULT</text><text x="20" y="48" font-size="14" font-family="Arial,sans-serif" fill="#615E57">DevAI Studio · build specification v4</text><defs><clipPath id="body"><rect x="0" y="66" width="390" height="844"/></clipPath></defs><g clip-path="url(#body)"><text x="24" y="91" font-size="14" font-family="Arial,sans-serif" fill="#20352D" font-weight="600">9:41</text><path d="M321 82v7 M325 80v9 M329 78v11" stroke="#20352D" stroke-width="2"/><rect x="345" y="78" width="22" height="11" rx="3" fill="#20352D"/><rect x="348" y="81" width="14" height="5" rx="1" fill="#FAF7F2"/><g transform="translate(16 114) scale(1.0)"><path d="M15 5l-7 7 7 7" fill="none" stroke="#173D32" stroke-width="1.65" stroke-linecap="round" stroke-linejoin="round"/></g><text x="44" y="132" font-size="16" font-family="Arial,sans-serif" fill="#173D32">Back</text><g transform="translate(337 116) scale(0.9166666666666666)"><path d="M5 12h.1 M12 12h.1 M19 12h.1" fill="none" stroke="#173D32" stroke-width="1.65" stroke-linecap="round" stroke-linejoin="round"/></g><text x="20" y="181" font-size="28" font-family="Arial,sans-serif" fill="#20352D">Reconcile outcome</text><rect x="148" y="892" width="94" height="5" rx="3" fill="#20352D"/><rect x="20" y="222" width="350" height="124" rx="16" fill="#E8E0D5"/><g transform="translate(38 241) scale(1.0833333333333333)"><path d="M12 3 2 21h20z M12 9v5 M12 17h.1" fill="none" stroke="#173D32" stroke-width="1.65" stroke-linecap="round" stroke-linejoin="round"/></g><text x="78" y="257" font-size="17" font-family="Arial,sans-serif" fill="#20352D">An unknown outcome needs</text><text x="78" y="279" font-size="17" font-family="Arial,sans-serif" fill="#20352D">evidence</text><text x="38" y="306" font-size="14" font-family="Arial,sans-serif" fill="#615E57">Check Instagram before resolving this</text><text x="38" y="327" font-size="14" font-family="Arial,sans-serif" fill="#615E57">attempt. Publishing again is blocke…</text><text x="20" y="376" font-size="14" font-family="Arial,sans-serif" fill="#615E57" font-weight="600">Confirmed outcome</text><rect x="20" y="388" width="350" height="52" rx="10" fill="#F2EDE5" stroke="#82786B"/><text x="34" y="413" font-size="16" font-family="Arial,sans-serif" fill="#20352D">Still unknown</text><g transform="translate(342 403) scale(0.6666666666666666)"><path d="M9 5l7 7-7 7" fill="none" stroke="#615E57" stroke-width="1.65" stroke-linecap="round" stroke-linejoin="round"/></g><text x="20" y="474" font-size="14" font-family="Arial,sans-serif" fill="#615E57" font-weight="600">External id</text><rect x="20" y="486" width="350" height="52" rx="10" fill="#F2EDE5" stroke="#82786B"/><text x="34" y="511" font-size="16" font-family="Arial,sans-serif" fill="#20352D">Required when Published</text><g transform="translate(342 501) scale(0.6666666666666666)"><path d="M9 5l7 7-7 7" fill="none" stroke="#615E57" stroke-width="1.65" stroke-linecap="round" stroke-linejoin="round"/></g><text x="20" y="572" font-size="14" font-family="Arial,sans-serif" fill="#615E57" font-weight="600">Evidence note</text><rect x="20" y="584" width="350" height="96" rx="10" fill="#F2EDE5" stroke="#82786B"/><text x="34" y="609" font-size="16" font-family="Arial,sans-serif" fill="#20352D">Add confirmed evidence of the</text><text x="34" y="633" font-size="16" font-family="Arial,sans-serif" fill="#20352D">external outcome.</text><rect x="20" y="698" width="350" height="48" rx="12" fill="#173D32"/><g transform="translate(34 712) scale(0.8333333333333334)"><path d="M5 12l4 4L19 6" fill="none" stroke="#FAF7F2" stroke-width="1.65" stroke-linecap="round" stroke-linejoin="round"/></g><text x="64" y="728" font-size="16" font-family="Arial,sans-serif" fill="#FAF7F2" font-weight="600">Save outcome</text></g><rect x="0" y="910" width="390" height="94" rx="0" fill="#E8E0D5"/><text x="20" y="934" font-size="12" font-family="Arial,sans-serif" fill="#615E57">Build reference · PUB-03 ·</text><text x="20" y="952" font-size="12" font-family="Arial,sans-serif" fill="#615E57">/publications/:publicationId/reconcile · exact</text><text x="20" y="970" font-size="12" font-family="Arial,sans-serif" fill="#615E57">control behavior in the screen and interactio…</text></svg>